<svg width="148" height="148" viewBox="0 0 148 148" fill="none" xmlns="http://www.w3.org/2000/svg">
<g filter="url(#filter0_d_2139_2)">
<circle cx="74" cy="60.0001" r="30" transform="rotate(-179.983 74 60.0001)" fill="#DC7000" style="fill:#DC7000;fill:color(display-p3 0.8627 0.4392 0.0000);fill-opacity:1;"/>
<circle cx="74" cy="60.0001" r="29" transform="rotate(-179.983 74 60.0001)" stroke="#DC7000" style="stroke:#DC7000;stroke:color(display-p3 0.8627 0.4392 0.0000);stroke-opacity:1;" stroke-width="2"/>
</g>
<path d="M82.7497 61.2527L67.9247 61.2482L72.4605 66.6995C72.6726 66.9549 72.7746 67.284 72.744 67.6145C72.7134 67.9451 72.5528 68.2499 72.2975 68.462C72.0421 68.6741 71.713 68.7761 71.3825 68.7455C71.0519 68.7149 70.7471 68.5543 70.535 68.299L64.2873 60.7971C64.2453 60.7374 64.2077 60.6747 64.1748 60.6095C64.1749 60.547 64.1749 60.5095 64.0874 60.447C64.0308 60.3037 64.0012 60.1511 64 59.997C64.0013 59.8429 64.031 59.6903 64.0877 59.547C64.0877 59.4845 64.0877 59.447 64.1752 59.3845C64.2081 59.3194 64.2457 59.2567 64.2878 59.1971L70.54 51.699C70.6576 51.5579 70.8048 51.4445 70.9712 51.3667C71.1376 51.289 71.319 51.2489 71.5027 51.2492C71.7948 51.2488 72.0778 51.3506 72.3026 51.537C72.4291 51.642 72.5337 51.7709 72.6104 51.9163C72.687 52.0618 72.7342 52.2209 72.7493 52.3847C72.7643 52.5484 72.7469 52.7135 72.6981 52.8705C72.6492 53.0274 72.5699 53.1733 72.4646 53.2995L67.9254 58.7482L82.7504 58.7527C83.0819 58.7528 83.3998 58.8846 83.6342 59.119C83.8685 59.3535 84.0001 59.6715 84 60.003C83.9999 60.3346 83.8681 60.6525 83.6336 60.8868C83.3992 61.1212 83.0812 61.2528 82.7497 61.2527Z" fill="white" style="fill:white;fill-opacity:1;"/>
<defs>
<filter id="filter0_d_2139_2" x="0" y="0" width="148" height="148" filterUnits="userSpaceOnUse" color-interpolation-filters="sRGB">
<feFlood flood-opacity="0" result="BackgroundImageFix"/>
<feColorMatrix in="SourceAlpha" type="matrix" values="0 0 0 0 0 0 0 0 0 0 0 0 0 0 0 0 0 0 127 0" result="hardAlpha"/>
<feOffset dy="14"/>
<feGaussianBlur stdDeviation="22"/>
<feColorMatrix type="matrix" values="0 0 0 0 0.0561111 0 0 0 0 0.0777333 0 0 0 0 0.133333 0 0 0 0.08 0"/>
<feBlend mode="normal" in2="BackgroundImageFix" result="effect1_dropShadow_2139_2"/>
<feBlend mode="normal" in="SourceGraphic" in2="effect1_dropShadow_2139_2" result="shape"/>
</filter>
</defs>
</svg>
