<svg width="61" height="61" viewBox="0 0 61 61" fill="none" xmlns="http://www.w3.org/2000/svg">
<circle cx="30.0112" cy="30.0112" r="29" transform="rotate(-179.979 30.0112 30.0112)" stroke="#DC7000" style="stroke:#DC7000;stroke:color(display-p3 0.8627 0.4392 0.0000);stroke-opacity:1;" stroke-width="2"/>
<path d="M21.2607 31.2579L36.0857 31.2634L31.5462 36.7117C31.3339 36.9669 31.2317 37.296 31.262 37.6265C31.2924 37.9571 31.4528 38.262 31.708 38.4743C31.9632 38.6866 32.2923 38.7888 32.6228 38.7584C32.9534 38.7281 33.2583 38.5676 33.4706 38.3125L39.7234 30.8148C39.7654 30.7551 39.8031 30.6925 39.8359 30.6273C39.836 30.5648 39.836 30.5273 39.9235 30.4649C39.9802 30.3216 40.0099 30.169 40.0112 30.0149C40.01 29.8608 39.9804 29.7082 39.9238 29.5649C39.9238 29.5024 39.9239 29.4649 39.8364 29.4023C39.8036 29.3371 39.766 29.2745 39.724 29.2148L33.4767 21.7125C33.3593 21.5713 33.2121 21.4578 33.0458 21.3799C32.8795 21.3021 32.698 21.2619 32.5144 21.2621C32.2223 21.2614 31.9393 21.363 31.7143 21.5493C31.5877 21.6542 31.483 21.783 31.4063 21.9284C31.3295 22.0738 31.2822 22.233 31.2671 22.3967C31.2519 22.5604 31.2692 22.7255 31.318 22.8825C31.3667 23.0395 31.4459 23.1854 31.5511 23.3117L36.0866 28.7634L21.2616 28.7579C20.9301 28.7578 20.6121 28.8894 20.3776 29.1237C20.1431 29.358 20.0113 29.6759 20.0112 30.0074C20.011 30.339 20.1426 30.657 20.3769 30.8915C20.6113 31.126 20.9292 31.2578 21.2607 31.2579Z" fill="#DC7000" style="fill:#DC7000;fill:color(display-p3 0.8627 0.4392 0.0000);fill-opacity:1;"/>
</svg>
